# xmcd
#
# Track frame offsets:
#	150
#	14676
#	36417
#	51045
#	67801
#	80529
#	97805
#	113654
#	133281
#	149991
#	165162
#	180492
#	197677
#	214648
#	231046
#
# Disc length: 3301 seconds
#
# Revision: 2
# Processed by: cddbd v1.5.2PL0 Copyright (c) Steve Scherf et al.
# Submitted via: audiograbber 1.83.01
#
DISCID=cc0ce30f
DTITLE=Various Artist - CB80007
DYEAR=1900
DGENRE=KARAOKE
TTITLE0=MICHAEL PETERSON - DRINK SWEAR STEAL AND LIE
TTITLE1=RAYBON BROTHERS - BUTTERFLY KISSES
TTITLE2=TRACE ADKINS - I LEFT SOMETHING TURNED ON AT HOME
TTITLE3=TRAVIS TRITT - WHERE THE CORN DON'T GROW
TTITLE4=ALAN JACKSON - LITTLE BITTY
TTITLE5=KEVIN SHARP - NOBODY KNOWS
TTITLE6=TRACY BYRD - DON'T LOVE MAKE A DIAMOND SHINE
TTITLE7=GEORGE STRAIT - CARRYING YOUR LOVE WITH ME
TTITLE8=JOHN ANDERSON - SOMEBODY SLAP ME
TTITLE9=CLAY WALKER - WATCH THIS
TTITLE10=BROOKS AND DUNN - HONKY TONK TRUTH
TTITLE11=VINCE GILL - PRETTY LITTLE ADRIANA
TTITLE12=MICHAEL PETERSON - FROM HERE TO ETERNITY
TTITLE13=DAVID KERSH - GOODNIGHT SWEETHEART
TTITLE14=DARYLE SINGLETARY - AMEN KIND OF LOVE
EXTD=
EXTT0=
EXTT1=
EXTT2=
EXTT3=
EXTT4=
EXTT5=
EXTT6=
EXTT7=
EXTT8=
EXTT9=
EXTT10=
EXTT11=
EXTT12=
EXTT13=
EXTT14=
PLAYORDER=
